<mxfile host="app.diagrams.net" modified="2024-02-05T07:03:30.060Z" agent="Mozilla/5.0 (Windows NT 10.0; Win64; x64) AppleWebKit/537.36 (KHTML, like Gecko) Chrome/121.0.0.0 Safari/537.36" etag="IJ6nG01ybR9nhf-xEk72" version="23.1.1" type="github">
  <diagram name="페이지-1" id="_yoAt7FqWGV4HWybBfpH">
    <mxGraphModel dx="1434" dy="786" grid="1" gridSize="10" guides="1" tooltips="1" connect="1" arrows="1" fold="1" page="1" pageScale="1" pageWidth="827" pageHeight="1169" math="0" shadow="0">
      <root>
        <mxCell id="0" />
        <mxCell id="1" parent="0" />
        <mxCell id="SmQyZYVfOS4_B2Ly18iX-2" value="&lt;b&gt;&lt;font style=&quot;font-size: 18px;&quot;&gt;S&lt;br&gt;T&lt;/font&gt;&lt;/b&gt;" style="rounded=0;whiteSpace=wrap;html=1;" vertex="1" parent="1">
          <mxGeometry x="40" y="160" width="40" height="80" as="geometry" />
        </mxCell>
        <mxCell id="SmQyZYVfOS4_B2Ly18iX-3" value="&lt;b&gt;&lt;font style=&quot;font-size: 18px;&quot;&gt;C&lt;br&gt;T&lt;/font&gt;&lt;/b&gt;" style="rounded=0;whiteSpace=wrap;html=1;" vertex="1" parent="1">
          <mxGeometry x="360" y="60" width="40" height="80" as="geometry" />
        </mxCell>
        <mxCell id="SmQyZYVfOS4_B2Ly18iX-4" value="&lt;b&gt;&lt;font style=&quot;font-size: 18px;&quot;&gt;C&lt;br&gt;T&lt;/font&gt;&lt;/b&gt;" style="rounded=0;whiteSpace=wrap;html=1;" vertex="1" parent="1">
          <mxGeometry x="360" y="160" width="40" height="80" as="geometry" />
        </mxCell>
        <mxCell id="SmQyZYVfOS4_B2Ly18iX-5" value="&lt;b&gt;&lt;font style=&quot;font-size: 18px;&quot;&gt;C&lt;br&gt;T&lt;/font&gt;&lt;/b&gt;" style="rounded=0;whiteSpace=wrap;html=1;" vertex="1" parent="1">
          <mxGeometry x="360" y="260" width="40" height="80" as="geometry" />
        </mxCell>
        <mxCell id="SmQyZYVfOS4_B2Ly18iX-6" value="&lt;b&gt;&lt;font style=&quot;font-size: 24px;&quot;&gt;Proxy&lt;br&gt;&quot;Higher&quot; Layer&lt;/font&gt;&lt;/b&gt;" style="rounded=0;whiteSpace=wrap;html=1;" vertex="1" parent="1">
          <mxGeometry x="120" y="40" width="200" height="320" as="geometry" />
        </mxCell>
        <mxCell id="SmQyZYVfOS4_B2Ly18iX-7" value="&lt;b&gt;&lt;font style=&quot;font-size: 20px;&quot;&gt;CT = Client Transaction&lt;/font&gt;&lt;/b&gt;" style="text;html=1;strokeColor=none;fillColor=none;align=left;verticalAlign=middle;whiteSpace=wrap;rounded=0;" vertex="1" parent="1">
          <mxGeometry x="480" y="160" width="240" height="30" as="geometry" />
        </mxCell>
        <mxCell id="SmQyZYVfOS4_B2Ly18iX-8" value="&lt;b&gt;&lt;font style=&quot;font-size: 20px;&quot;&gt;ST = Server Transaction&lt;/font&gt;&lt;/b&gt;" style="text;html=1;strokeColor=none;fillColor=none;align=left;verticalAlign=middle;whiteSpace=wrap;rounded=0;" vertex="1" parent="1">
          <mxGeometry x="480" y="210" width="240" height="30" as="geometry" />
        </mxCell>
      </root>
    </mxGraphModel>
  </diagram>
</mxfile>
